<svg width="469" height="200" viewBox="0 0 469 200" fill="none" xmlns="http://www.w3.org/2000/svg">
<path fill-rule="evenodd" clip-rule="evenodd" d="M204.06 193.736C183 200.403 158.31 200.946 134.947 199.048C89.7175 195.372 44.0423 181.516 21.5529 156.448C11.8522 145.635 6.95286 133.374 3.53949 121.133C-1.01913 104.785 -2.86062 87.2102 8.59476 72.2717C18.2519 59.6782 36.1735 50.514 54.0288 42.2354C72.7422 33.559 93.0141 25.1233 116.062 23.3893C182.547 22.5572 175.812 38.3392 245.245 13.2388C265.43 5.94198 325.441 18.4672 345.717 22.5572C365.994 26.6472 406.005 39.2654 433.14 54.2549C444.482 60.5204 454.944 67.691 461.318 76.3165C470.862 89.2311 470.399 104.276 465.946 118.249C461.455 132.343 451.703 147.001 431.895 154.074C422.946 157.27 412.627 158.641 402.382 159.165C359.594 161.355 314.078 149.812 274.922 160.931C248.117 168.544 230.335 185.417 204.06 193.736Z" fill="#32E5E5" fill-opacity="0.35"/>
<path fill-rule="evenodd" clip-rule="evenodd" d="M204.06 182.736C183 189.403 158.31 189.946 134.947 188.048C89.7175 184.372 44.0423 170.516 21.5529 145.448C11.8522 134.635 6.95286 122.374 3.53949 110.133C-1.01913 93.7852 -2.86062 76.2102 8.59476 61.2717C18.2519 48.6782 36.1735 39.514 54.0288 31.2354C72.7422 22.559 93.0141 14.1233 116.062 12.3893C182.547 11.5572 175.812 27.3392 245.245 2.2388C265.43 -5.05802 325.441 7.46725 345.717 11.5572C365.994 15.6472 406.005 28.2654 433.14 43.2549C444.482 49.5204 454.944 56.691 461.318 65.3165C470.862 78.2311 470.399 93.2757 465.946 107.249C461.455 121.343 451.703 136.001 431.895 143.074C422.946 146.27 412.627 147.641 402.382 148.165C359.594 150.355 314.078 138.812 274.922 149.931C248.117 157.544 230.335 174.417 204.06 182.736Z" fill="#64FCD9"/>
</svg>
